#!OML:ASF F:\VICON\USERDATA\INSTALL\rory3\rory3.ASF
:FULLY-SPECIFIED
:DEGREES
2712
root 14.0186 18.0356 -0.237668 355.544 -182.988 356.546
lowerback 10.656 2.6086 -3.14958
upperback 0.528174 3.13209 -1.7157
thorax -5.492 1.65708 -0.508075
lowerneck -21.2419 -4.00024 -12.0387
upperneck 30.9558 -5.693 7.87979
head 14.8918 -3.32369 4.12142
rclavicle -3.69243e-014 1.8487e-014
rhumerus -34.8972 -11.3305 -80.6962
rradius 33.6407
rwrist 4.46086
rhand -17.6068 6.60975
rfingers 7.12502
rthumb 8.64978 -23.193
lclavicle -3.69243e-014 1.8487e-014
lhumerus -40.1286 12.5149 77.5178
lradius 30.4374
lwrist -6.93567
lhand -16.1858 26.1178
lfingers 7.12502
lthumb 10.0209 55.8593
rfemur -0.107189 -3.60423 11.7232
rtibia 55.8269
rfoot 1.86126 -1.20871
rtoes -5.50826
lfemur -3.63218 4.77448 -29.7981
ltibia 7.48183
lfoot 2.39164 -9.32501
ltoes 12.5499
2713
root 14.0094 18.0425 -0.344314 355.342 -182.655 356.338
lowerback 10.8833 2.52625 -3.41911
upperback 0.576976 2.98824 -1.73151
thorax -5.57802 1.59654 -0.361689
lowerneck -21.1786 -3.90994 -11.8794
upperneck 30.8881 -5.53812 7.67929
head 14.8125 -3.26198 4.03731
rclavicle 1.86795e-014 -1.94809e-014
rhumerus -34.7704 -11.1361 -80.9531
rradius 33.3406
rwrist 4.6888
rhand -17.4628 6.47469
rfingers 7.12502
rthumb 8.78873 -23.3223
lclavicle 1.86795e-014 -1.94809e-014
lhumerus -40.0315 12.0453 77.7004
lradius 30.8434
lwrist -6.54378
lhand -16.6954 25.8095
lfingers 7.12502
lthumb 9.52922 55.574
rfemur -1.12575 -3.73966 11.3769
rtibia 57.4099
rfoot 1.26142 -1.35904
rtoes -5.38362
lfemur -2.2403 4.84184 -30.0752
ltibia 5.95499
lfoot 2.89838 -9.65806
ltoes 12.9394
2714
root 14.0017 18.0499 -0.448986 355.171 -182.29 356.279
lowerback 11.0715 2.45823 -3.55382
upperback 0.618672 2.87946 -1.66868
thorax -5.64677 1.54851 -0.211181
lowerneck -21.0352 -3.89453 -12.0158
upperneck 30.8044 -5.48541 7.71747
head 14.7421 -3.25036 4.08576
rclavicle 1.36292e-014 -1.41137e-014
rhumerus -34.8334 -11.0245 -81.0334
rradius 33.2527
rwrist 4.91267
rhand -17.2526 6.46989
rfingers 7.12502
rthumb 8.99156 -23.3185
lclavicle 1.36292e-014 -1.41137e-014
lhumerus -39.8881 11.6308 77.95
lradius 31.1692
lwrist -6.26153
lhand -17.0559 25.8317
lfingers 7.12502
lthumb 9.18141 55.6118
rfemur -2.12765 -3.87383 11.2156
rtibia 58.8088
rfoot 0.712987 -1.60216
rtoes -4.76483
lfemur -0.72907 4.86597 -30.1658
ltibia 4.41888
lfoot 3.39214 -10.0481
ltoes 12.0096
2715
root 13.992 18.054 -0.55497 355.074 -181.783 356.133
lowerback 11.109 2.34759 -3.74613
upperback 0.682648 2.71505 -1.6516
thorax -5.60556 1.47431 -0.0590585
lowerneck -21.0431 -3.92611 -12.153
upperneck 30.7967 -5.51155 7.81785
head 14.7528 -3.26292 4.14723
rclavicle -9.62242e-015 4.77083e-015
rhumerus -34.8231 -11.2268 -81.0277
rradius 32.996
rwrist 5.32947
rhand -17.3811 6.94423
rfingers 7.12502
rthumb 8.86757 -22.8494
lclavicle -9.62242e-015 4.77083e-015
lhumerus -39.6625 11.3289 78.112
lradius 31.4465
lwrist -6.12381
lhand -17.0475 26.1283
lfingers 7.12502
lthumb 9.18949 55.908
rfemur -3.12615 -4.14426 10.9124
rtibia 60.0259
rfoot 0.199492 -1.78109
rtoes -3.96073
lfemur 0.453709 4.74423 -30.3837
ltibia 3.20975
lfoot 3.63363 -10.3863
ltoes 12.2466
2716
root 13.9836 18.0583 -0.658489 355.02 -181.257 356.009
lowerback 11.1201 2.20846 -3.92503
upperback 0.731013 2.51404 -1.6188
thorax -5.56372 1.38103 0.108746
lowerneck -21.0589 -3.92592 -12.1958
upperneck 30.8357 -5.46967 7.74123
head 14.7675 -3.26161 4.13122
rclavicle 8.05699e-015 -1.74931e-014
rhumerus -34.695 -11.2532 -81.0725
rradius 32.6453
rwrist 5.73037
rhand -17.5224 7.48017
rfingers 7.12502
rthumb 8.73121 -22.3192
lclavicle 8.05699e-015 -1.74931e-014
lhumerus -39.5023 11.2118 78.2298
lradius 31.8091
lwrist -6.02475
lhand -17.2761 26.0407
lfingers 7.12502
lthumb 8.96888 55.83
rfemur -4.16199 -4.43695 10.6663
rtibia 61.0923
rfoot -0.300523 -1.9251
rtoes -3.36874
lfemur 1.47655 4.59588 -30.5837
ltibia 2.10768
lfoot 3.90608 -10.7005
ltoes 12.3022
2717
root 13.9782 18.063 -0.756957 354.992 -180.803 356.121
lowerback 11.1358 2.07304 -3.9182
upperback 0.782694 2.34012 -1.48332
thorax -5.51753 1.29473 0.2759
lowerneck -21.051 -3.91671 -12.2895
upperneck 30.8211 -5.37443 7.63456
head 14.7468 -3.24388 4.12054
rclavicle -1.44026e-014 1.5704e-014
rhumerus -34.5581 -11.3299 -81.0112
rradius 32.4034
rwrist 6.46858
rhand -17.3299 7.72738
rfingers 7.12502
rthumb 8.91705 -22.0642
lclavicle -1.44026e-014 1.5704e-014
lhumerus -39.2956 11.1313 78.3892
lradius 32.1463
lwrist -5.96588
lhand -17.5334 25.8511
lfingers 7.12502
lthumb 8.72061 55.6509
rfemur -5.21118 -4.56448 10.7724
rtibia 61.9705
rfoot -0.787538 -2.20759
rtoes -2.90757
lfemur 2.46256 4.49513 -30.5051
ltibia 0.990171
lfoot 4.13468 -11.0122
ltoes 12.2587
2718
root 13.9714 18.0623 -0.856536 354.98 -180.334 356.111
lowerback 11.1251 1.99038 -3.9795
upperback 0.804035 2.22658 -1.42396
thorax -5.48957 1.24035 0.391686
lowerneck -20.9681 -3.92638 -12.351
upperneck 30.7464 -5.35851 7.62316
head 14.6946 -3.24243 4.12805
rclavicle 7.05375e-015 -1.19271e-014
rhumerus -34.5495 -11.887 -80.7802
rradius 32.21
rwrist 7.6157
rhand -16.7365 7.78349
rfingers 7.12502
rthumb 9.48955 -21.9828
lclavicle 7.05375e-015 -1.19271e-014
lhumerus -39.1059 10.8983 78.5233
lradius 32.4875
lwrist -5.9668
lhand -17.4891 25.9635
lfingers 7.12502
lthumb 8.76342 55.7616
rfemur -6.23913 -4.76766 10.6954
rtibia 62.6874
rfoot -1.1178 -2.32794
rtoes -2.29655
lfemur 2.57935 4.38568 -30.5743
ltibia 1.60211
lfoot 3.49938 -11.2477
ltoes 12.5364
2719
root 13.9684 18.0632 -0.961554 354.99 -179.897 356.238
lowerback 11.1075 1.91049 -3.97479
upperback 0.732283 2.11605 -1.32182
thorax -5.55502 1.1848 0.512875
lowerneck -20.8109 -3.87757 -12.2566
upperneck 30.7274 -5.30438 7.49699
head 14.6361 -3.23052 4.06805
rclavicle 5.12864e-014 -2.87244e-014
rhumerus -34.8356 -12.0887 -80.6746
rradius 32.2329
rwrist 8.02322
rhand -16.4176 7.50496
rfingers 7.12502
rthumb 9.79727 -22.2471
lclavicle 5.12864e-014 -2.87244e-014
lhumerus -39.0299 10.7776 78.5445
lradius 32.7489
lwrist -5.89096
lhand -17.1032 26.4124
lfingers 7.12502
lthumb 9.13581 56.1945
rfemur -7.25282 -4.93326 10.8257
rtibia 63.2361
rfoot -1.55451 -2.43501
rtoes -2.26077
lfemur 2.22334 4.29161 -30.4821
ltibia 3.12745
lfoot 2.39231 -11.4748
ltoes 12.1797
2720
root 13.9695 18.0624 -1.06364 354.988 -179.453 356.411
lowerback 11.0443 1.98662 -3.95868
upperback 0.729587 1.94116 -1.1897
thorax -5.52755 0.977443 0.683468
lowerneck -20.8339 -3.84122 -12.0936
upperneck 30.832 -5.2514 7.28382
head 14.6684 -3.22352 3.96188
rclavicle 1.42659e-014 -1.82882e-014
rhumerus -34.9972 -12.3043 -80.6208
rradius 32.1303
rwrist 8.05474
rhand -16.4512 7.57373
rfingers 7.12502
rthumb 9.7649 -22.1799
lclavicle 1.42659e-014 -1.82882e-014
lhumerus -38.8627 10.856 78.5226
lradius 33.0392
lwrist -5.90909
lhand -16.5898 26.9452
lfingers 7.12502
lthumb 9.63114 56.705
rfemur -8.20262 -5.00108 11.0543
rtibia 63.6222
rfoot -2.16519 -2.5652
rtoes -2.91555
lfemur 1.89723 4.18867 -30.3125
ltibia 4.58294
lfoot 1.42136 -11.703
ltoes 12.4912
2721
root 13.9682 18.056 -1.1606 354.961 -178.967 356.461
lowerback 11.0178 1.91632 -4.00276
upperback 0.768427 1.84857 -1.13615
thorax -5.47094 0.932739 0.780646
lowerneck -20.9425 -3.89567 -12.0564
upperneck 31.0403 -5.33635 7.19177
head 14.7938 -3.27801 3.90397
rclavicle 1.79372e-014 -1.2921e-014
rhumerus -35.0882 -12.7025 -80.512
rradius 32.0042
rwrist 7.93511
rhand -16.4875 7.79912
rfingers 7.12502
rthumb 9.72984 -21.9561
lclavicle 1.79372e-014 -1.2921e-014
lhumerus -38.6435 10.8086 78.5466
lradius 33.4204
lwrist -6.04964
lhand -17.653 26.7176
lfingers 7.12502
lthumb 8.60519 56.5222
rfemur -9.08384 -5.12485 11.1026
rtibia 63.8545
rfoot -2.67175 -2.67254
rtoes -3.05713
lfemur 1.56358 4.06017 -30.3011
ltibia 6.04524
lfoot 0.466644 -11.8892
ltoes 12.6359
2722
root 13.9639 18.0513 -1.25696 354.91 -178.514 356.633
lowerback 11.1139 1.85455 -3.88754
upperback 0.728141 1.7846 -1.06184
thorax -5.56279 0.903512 0.800374
lowerneck -20.8301 -3.93903 -12.1412
upperneck 31.1658 -5.45305 7.26795
head 14.8465 -3.34336 3.93046
rclavicle -2.99482e-014 1.6201e-014
rhumerus -35.3245 -12.8079 -80.4838
rradius 31.9959
rwrist 7.43178
rhand -16.6038 7.62397
rfingers 7.12502
rthumb 9.61765 -22.1365
lclavicle -2.99482e-014 1.6201e-014
lhumerus -38.5417 10.7213 78.5126
lradius 33.8279
lwrist -6.52077
lhand -18.7883 26.8907
lfingers 7.12502
lthumb 7.50949 56.7375
rfemur -9.93408 -5.27812 11.2726
rtibia 63.9331
rfoot -2.99035 -2.73262
rtoes -3.41259
lfemur 1.37994 3.95636 -30.1661
ltibia 7.17097
lfoot -0.461317 -12.0928
ltoes 12.551
2723
root 13.9626 18.0455 -1.35303 354.871 -178.089 356.787
lowerback 11.1541 1.7754 -3.86384
upperback 0.705251 1.6908 -0.963136
thorax -5.60731 0.861197 0.903923
lowerneck -20.6654 -3.9486 -12.1985
upperneck 31.1798 -5.51321 7.33691
head 14.8281 -3.37619 3.95816
rclavicle -4.95253e-015 9.44227e-015
rhumerus -35.5037 -12.9968 -80.4167
rradius 31.862
rwrist 7.09621
rhand -16.9687 7.38471
rfingers 7.12502
rthumb 9.26551 -22.3917
lclavicle -4.95253e-015 9.44227e-015
lhumerus -38.4614 10.6838 78.4992
lradius 34.4981
lwrist -7.11998
lhand -17.7118 28.8132
lfingers 7.12502
lthumb 8.54849 58.6201
rfemur -10.7556 -5.3302 11.4495
rtibia 63.8769
rfoot -3.54202 -2.83166
rtoes -3.86409
lfemur 1.33349 3.88109 -30.0001
ltibia 8.01833
lfoot -1.21727 -12.3483
ltoes 12.9833
2724
root 13.9626 18.0378 -1.44928 354.797 -177.521 356.608
lowerback 11.1644 1.682 -4.19639
upperback 0.773759 1.52148 -0.950403
thorax -5.54286 0.782152 1.13243
lowerneck -20.6342 -3.97081 -12.2744
upperneck 31.2072 -5.55871 7.41246
head 14.8452 -3.39797 3.99527
rclavicle -1.49554e-015 -2.78299e-015
rhumerus -35.6332 -13.1378 -80.4055
rradius 31.9314
rwrist 6.81313
rhand -17.3651 6.45296
rfingers 7.12502
rthumb 8.88302 -23.3401
lclavicle -1.49554e-015 -2.78299e-015
lhumerus -38.1662 10.6399 78.5564
lradius 34.6761
lwrist -6.47727
lhand -18.1273 28.0498
lfingers 7.12502
lthumb 8.14752 57.8728
rfemur -11.4719 -5.43241 11.2229
rtibia 63.7089
rfoot -4.58185 -3.0426
rtoes -3.80806
lfemur 1.42819 3.70189 -30.1831
ltibia 8.75957
lfoot -1.83643 -12.7033
ltoes 11.8922
2725
root 13.9607 18.0245 -1.54771 354.686 -176.894 356.473
lowerback 11.1805 1.59248 -4.44345
upperback 0.875729 1.36906 -0.921339
thorax -5.44345 0.707731 1.32764
lowerneck -20.6563 -4.04047 -12.3348
upperneck 31.2336 -5.63181 7.39373
head 14.8744 -3.438 3.98432
rclavicle -1.92775e-014 -2.93207e-015
rhumerus -35.8187 -13.094 -80.3766
rradius 32.2067
rwrist 6.47458
rhand -17.3474 5.88558
rfingers 7.12502
rthumb 8.90009 -23.9067
lclavicle -1.92775e-014 -2.93207e-015
lhumerus -37.6796 10.5314 78.7164
lradius 34.9247
lwrist -6.26638
lhand -17.6385 29.0736
lfingers 7.12502
lthumb 8.61922 58.8777
rfemur -12.0704 -5.54929 11.043
rtibia 63.4365
rfoot -5.74267 -3.32334
rtoes -4.68739
lfemur 1.61707 3.46803 -30.3423
ltibia 9.33901
lfoot -2.47896 -12.8604
ltoes 12.9546
2726
root 13.9563 18.0114 -1.64264 354.728 -176.367 356.466
lowerback 11.0983 1.54082 -4.49886
upperback 0.904403 1.30176 -0.89174
thorax -5.36537 0.674942 1.40258
lowerneck -20.6608 -4.129 -12.3512
upperneck 31.2499 -5.75602 7.38707
head 14.9005 -3.49265 3.96073
rclavicle 2.03506e-014 -1.05356e-014
rhumerus -35.9473 -13.2392 -80.2668
rradius 32.2612
rwrist 6.19998
rhand -17.0836 5.9686
rfingers 7.12502
rthumb 9.15467 -23.8127
lclavicle 2.03506e-014 -1.05356e-014
lhumerus -37.2848 10.2885 78.8951
lradius 35.3087
lwrist -6.12866
lhand -17.1548 29.4883
lfingers 7.12502
lthumb 9.08594 59.2726
rfemur -12.8488 -5.57798 10.9951
rtibia 63.0626
rfoot -6.39127 -3.32022
rtoes -5.04389
lfemur 1.60328 3.29292 -30.3792
ltibia 9.86271
lfoot -2.85524 -13.1391
ltoes 13.2618
